<?xml version="1.0" encoding="UTF-8"?>
<svg id="Layer_1" data-name="Layer 1" xmlns="http://www.w3.org/2000/svg" viewBox="0 0 293 69.08">
  <defs>
    <style>
      .cls-1 {
        fill: #758db5;
        stroke: #758db5;
        stroke-miterlimit: 10;
        stroke-width: .75px;
      }

      .cls-2 {
        fill: #a08959;
      }

      .cls-3 {
        fill: #2f4975;
      }
    </style>
  </defs>
  <path class="cls-3" d="M34.46,45.56v8.73c0,1.53.25,2.36,1.53,2.36.76,0,1.27-.19,1.91-.51l.19.25c-1.08,1.08-2.87,2.29-5.41,2.29-3.06,0-4.46-1.59-4.46-4.52-1.02,1.59-3.12,4.65-7.83,4.65s-7.96-2.74-7.96-7.39c0-2.99,1.78-5.8,3.82-7.52.76.19,1.91.38,3.12.38,4.2,0,6.69-1.27,9.11-2.93v-5.92c0-4.65-.96-7.2-4.39-7.2s-5.29,1.72-5.29,2.55c0,2.23,2.29,3.12,2.29,5.8,0,2.04-1.72,2.99-3.18,2.99-1.91,0-3.12-1.47-3.12-3.18,0-3.63,2.8-8.66,9.55-8.66s10.13,3.44,10.13,7.64v5.16c1.47,0,2.87.7,3.5,1.21l-.06.25c-1.97,0-3.44,1.02-3.44,3.57ZM24.14,44.22c-4.08,1.59-6.18,3.69-6.18,7.07s2.42,5.29,4.97,5.29c1.97,0,3.88-1.02,5.54-3.69v-10.89c-.89.57-2.67,1.59-4.33,2.23Z"/>
  <path class="cls-3" d="M40.31,57.66h4.46v-12.1c0-2.67-1.59-3.57-3.44-3.57l-.06-.25c.64-.51,2.04-1.21,3.5-1.21v-10.19h-4.46v-.57c3.88-.19,7.77-1.27,9.62-2.04l.83.51v12.29c1.47,0,2.87.7,3.5,1.21l-.06.25c-1.91,0-3.44.96-3.44,3.57v12.1h4.46v.51h-14.9v-.51ZM44.14,18.49c0-1.97,1.59-3.63,3.57-3.63s3.57,1.66,3.57,3.63-1.53,3.63-3.57,3.63-3.57-1.59-3.57-3.63Z"/>
  <path class="cls-3" d="M67.89,45.56v12.1h4.46v.51h-14.9v-.51h4.46v-12.1c0-2.55-1.47-3.57-3.44-3.57l-.06-.25c.64-.51,2.04-1.21,3.5-1.21v-24.33h-4.46v-.57c3.69-.13,7.64-1.27,9.62-2.04l.83.64v26.3c1.47,0,2.87.7,3.5,1.21l-.06.25c-1.97,0-3.44,1.02-3.44,3.57Z"/>
  <path class="cls-3" d="M97.12,40.53v-11.78h-4.46v-.51h10.45v12.29c1.47,0,2.87.7,3.5,1.21l-.06.25c-1.91,0-3.44.96-3.44,3.57v12.1h3.82v.51h-9.81v-5.54c-.83,2.04-3.44,6.18-9.04,6.18s-9.81-2.17-9.81-9.81v-3.44c0-2.67-1.59-3.57-3.44-3.57l-.06-.25c.64-.51,2.04-1.21,3.5-1.21v-11.78h-4.46v-.51h10.45v12.29c1.47,0,2.87.7,3.5,1.21l-.06.25c-1.91,0-3.44.96-3.44,3.57v3.57c0,5.99,1.97,8.15,6.18,8.15s6.69-5.1,6.69-7.13v-4.59c0-2.61-1.59-3.57-3.44-3.57l-.06-.25c.64-.51,2.04-1.21,3.5-1.21Z"/>
  <path class="cls-3" d="M109.48,57.66h4.46v-12.1c0-2.67-1.59-3.57-3.44-3.57l-.06-.25c.64-.51,2.04-1.21,3.5-1.21v-10.19h-4.46v-.57c3.88-.19,7.77-1.27,9.62-2.04l.83.51v12.29c1.47,0,2.87.7,3.5,1.21l-.06.25c-1.91,0-3.44.96-3.44,3.57v12.1h4.46v.51h-14.9v-.51ZM113.3,18.49c0-1.97,1.59-3.63,3.57-3.63s3.57,1.66,3.57,3.63-1.53,3.63-3.57,3.63-3.57-1.59-3.57-3.63Z"/>
  <path class="cls-3" d="M137.05,45.56v12.1h4.46v.51h-14.9v-.51h4.46v-12.1c0-2.67-1.59-3.57-3.44-3.57l-.06-.25c.64-.51,2.04-1.21,3.5-1.21v-10.19h-4.46v-.57c3.69-.13,7.64-1.27,9.62-2.04l.83.51v5.92c.96-3.06,4.01-6.43,9.62-6.43s9.24,2.99,9.24,10.45v2.36c1.46,0,2.87.7,3.5,1.21l-.06.25c-1.97,0-3.44,1.02-3.44,3.57v12.1h4.46v.51h-14.9v-.51h4.46v-12.1c0-2.55-1.46-3.57-3.44-3.57l-.06-.25c.64-.51,2.04-1.21,3.5-1.21v-2.23c0-5.03-1.46-8.66-6.18-8.66s-6.69,5.1-6.69,7.45v3.44c1.47,0,2.87.7,3.5,1.21l-.06.25c-1.91,0-3.44.96-3.44,3.57Z"/>
  <path class="cls-2" d="M178.31,58.09c0,1.15,1.08,1.78,2.42,1.78.83,0,1.59-.19,2.17-.64l.19.25c-.7.51-1.66.83-2.55.83-1.02,0-1.85-.25-2.36-.76-.19.38-.51.64-.83.76-.19-.25-.32-.51-.38-.89-.7.64-1.47.89-2.36.89-.64,0-1.08-.13-1.47-.32l.13-.32c.38.13.83.19,1.27.19,1.72,0,2.87-1.46,3.5-3.57l10.51-34.08c-.96-3.38-1.78-6.11-4.4-6.11-.83,0-1.91.25-2.42.64,1.08,0,2.04.96,2.04,2.04,0,1.02-.96,1.97-2.04,1.97-1.02,0-1.97-.96-1.97-1.97,0-2.04,2.36-3.06,4.52-3.06,2.42,0,4.33.57,5.92,1.46,1.02-1.21,2.55-2.1,3.44-2.1l13.5,41.21c.7,2.1,1.85,3.38,3.69,3.38.76,0,1.4-.13,1.91-.38l.19.45c-.64.38-1.53.57-2.68.57-1.85,0-3.82-.64-5.16-1.78-.19.76-.51,1.27-1.21,1.72l-.13.06c-1.4-.13-2.36-1.02-3.06-2.29-1.47,1.4-3.5,2.29-5.73,2.29-2.61,0-4.97-1.78-4.97-4.52,0-1.72,1.27-3.88,3.38-3.88.83,0,1.91.64,1.91,1.72,0,.83-.76,1.66-1.72,1.66-.7,0-1.15-.51-1.4-1.02-.06-.13-.06-.32-.06-.45,0-.32.06-.7.25-.89-.96.25-1.78,1.34-1.78,2.8,0,2.1,1.66,3.95,4.01,3.95,2.55,0,4.4-1.78,4.4-4.52,0-1.02-.25-2.1-.7-3.38l-2.61-7.9h-13.12s-4.01,12.99-4.01,12.99c-.13.38-.25.83-.25,1.21ZM195.51,43.31l-6.56-20.13-6.18,20.13h12.74Z"/>
  <path class="cls-2" d="M231.58,33.12c.96,0,1.72.7,1.72,1.72,0,.51-.25,1.08-.76,1.4,3.89-.45,7.9-3.38,7.9-10.83,0-5.16-2.93-9.36-6.75-9.36-3.57,0-5.35,2.55-5.35,6.69v29.94c0,4.27,2.29,5.92,4.97,6.43l-.06.25c-2.61,0-4.84-.57-6.37-1.72-.38,1.08-1.02,1.91-2.1,2.36h-.13c-1.08-.38-1.66-1.15-2.04-2.17-1.47,1.4-3.44,2.17-5.35,2.17-3.76,0-5.54-2.36-5.54-4.71s1.91-4.01,3.69-4.01c1.27,0,2.17.76,2.17,1.85,0,.89-.7,1.59-1.59,1.59-1.02,0-1.59-.7-1.59-1.47,0-.45.19-.96.51-1.21-1.15,0-2.68,1.27-2.68,3.25,0,1.85,1.34,4.08,4.46,4.08,2.99,0,4.4-2.55,4.4-6.69v-29.94c0-4.14-1.4-6.69-4.4-6.69s-4.46,2.23-4.46,4.08c0,1.97,1.53,3.25,2.68,3.25-.32-.25-.51-.76-.51-1.21,0-.76.57-1.47,1.59-1.47.89,0,1.59.7,1.59,1.59,0,1.08-.89,1.85-2.17,1.85-1.78,0-3.69-1.72-3.69-4.01s1.78-4.71,5.54-4.71c1.91,0,3.89.83,5.35,2.23.38-1.02.96-1.85,2.04-2.23h.13c1.02.38,1.66,1.15,2.04,2.23,1.4-1.21,4.01-2.23,7.33-2.23,9.23,0,13.38,4.59,13.38,10.06,0,7.77-6.88,10.13-11.27,10.83,4.39.38,11.21,2.42,11.21,10.96,0,1.27-.25,4.2-.25,5.73,0,4.71,2.42,6.43,3.63,6.69-.45-.38-.76-1.08-.76-1.72,0-1.08.76-1.97,1.91-1.97,1.21,0,1.91.83,1.91,1.97,0,1.27-1.21,2.04-2.68,2.04-8.02,0-11.02-7.9-11.15-15.03-.13-6.69-2.93-8.41-6.94-8.41h-1.15c-1.27,0-2.1-.83-2.1-1.78,0-.89.76-1.66,1.72-1.66Z"/>
  <path class="cls-2" d="M284.38,15.41l.45.51c-.57,1.34-.83,3.95-.83,5.22,0,2.48.57,4.01.57,5.67,0,1.02-.96,1.97-2.04,1.97-1.02,0-1.97-.96-1.97-1.97,0-1.08.89-2.04,1.91-2.04.57,0,1.02.19,1.21.32-.83-4.52-3.44-8.41-8.85-8.41h-3.12v35.99c0,4.14,1.4,6.69,4.39,6.69s4.46-2.23,4.46-4.08c0-1.97-1.53-3.25-2.68-3.25.32.25.51.76.51,1.21,0,.76-.57,1.47-1.59,1.47-.89,0-1.59-.7-1.59-1.59,0-1.08.89-1.85,2.17-1.85,1.78,0,3.69,1.72,3.69,4.01s-1.78,4.71-5.54,4.71c-1.97,0-3.95-.76-5.35-2.17-.38,1.02-1.02,1.78-2.04,2.17h-.13c-1.08-.38-1.66-1.15-2.04-2.17-1.46,1.4-3.44,2.17-5.35,2.17-3.76,0-5.54-2.36-5.54-4.71s1.91-4.01,3.69-4.01c1.27,0,2.17.76,2.17,1.85,0,.89-.7,1.59-1.59,1.59-1.02,0-1.59-.7-1.59-1.47,0-.45.19-.96.51-1.21-1.15,0-2.68,1.27-2.68,3.25,0,1.85,1.34,4.08,4.46,4.08s4.4-2.55,4.4-6.69V16.69h-2.99c-5.41,0-8.02,3.89-8.85,8.41.19-.13.64-.32,1.21-.32,1.02,0,1.91.96,1.91,2.04,0,1.02-.96,1.97-1.97,1.97-1.08,0-2.04-.96-2.04-1.97,0-1.66.57-3.18.57-5.67,0-1.27-.25-3.89-.83-5.22l.45-.51c1.27.25,4.78.64,9.55.64h13.38c4.78,0,8.28-.38,9.55-.64Z"/>
  <line class="cls-1" x1="169.05" y1="13.58" x2="169.05" y2="60.32"/>
  <polygon class="cls-3" points="51.33 23.12 45.51 23.95 41.88 19.32 44.07 13.86 49.9 13.03 53.53 17.66 51.33 23.12"/>
  <polygon class="cls-3" points="120.5 23.12 114.67 23.95 111.04 19.32 113.23 13.86 119.06 13.03 122.69 17.66 120.5 23.12"/>
</svg>